Coordinates
version=1
nRows=29
nColumns=22
inDegrees=yes

Units are S.I. units (second, meters, Newtons, ...)
If the header above contains a line with 'inDegrees', this indicates whether rotational values are in degrees (yes) or radians (no).

endheader
time	pelvis_tilt	pelvis_list	pelvis_rotation	pelvis_tx	pelvis_ty	pelvis_tz	hip_flexion_r	hip_adduction_r	hip_rotation_r	knee_angle_r	ankle_angle_r	subtalar_angle_r	hip_flexion_l	hip_adduction_l	hip_rotation_l	knee_angle_l	ankle_angle_l	subtalar_angle_l	lumbar_extension	lumbar_bending	lumbar_rotation
      0.01000000	     -6.58458035	      3.08516708	    186.74104213	      0.05089940	      0.95596799	      1.19816696	     -6.90333132	      6.57874046	    -11.93286162	     -6.46154739	     12.59408371	      7.98713093	     -3.76498927	     -4.58743861	    -11.04730093	    -15.17762583	     20.96874823	     -7.42661896	    -12.46661748	      5.49018112	     -9.08329545
      0.02000000	     -6.60051910	      3.09233760	    186.70036067	      0.05111421	      0.95599492	      1.19826269	     -6.87328736	      6.56707843	    -11.90810006	     -6.52306578	     12.58970883	      7.98520401	     -3.76433762	     -4.57976302	    -11.05120000	    -15.19957050	     20.96794697	     -7.43039876	    -12.51349543	      5.49167569	     -9.08859476
      0.03000000	     -6.61030536	      3.09830330	    186.61326318	      0.05134932	      0.95601381	      1.19828881	     -6.81094434	      6.54270296	    -11.88052016	     -6.63190616	     12.61932594	      7.97877139	     -3.76475352	     -4.57044115	    -11.13827218	    -15.21859896	     20.96812287	     -7.45930141	    -12.56129496	      5.47171402	     -9.02315427
      0.04000000	     -6.62730905	      3.10942800	    186.56081827	      0.05161089	      0.95604225	      1.19838061	     -6.77239234	      6.53222525	    -11.84063427	     -6.70437041	     12.61886313	      7.97508192	     -3.75976127	     -4.56495435	    -11.14382886	    -15.24859731	     20.96838141	     -7.46842098	    -12.61328126	      5.46700068	     -9.03550749
      0.05000000	     -6.62944327	      3.12218552	    186.46042029	      0.05186848	      0.95604892	      1.19837487	     -6.69577971	      6.51310141	    -11.80161521	     -6.82025975	     12.65432337	      7.96684272	     -3.74304391	     -4.56399161	    -11.24982377	    -15.28477888	     20.97507915	     -7.51337650	    -12.65228878	      5.44028201	     -8.96175823
      0.06000000	     -6.64478772	      3.13752678	    186.40971562	      0.05214679	      0.95607342	      1.19843731	     -6.65712488	      6.50976443	    -11.76310777	     -6.88526721	     12.65408318	      7.96408036	     -3.72907256	     -4.56610243	    -11.25267479	    -15.32320111	     20.97749855	     -7.52515064	    -12.70250444	      5.42877664	     -8.98168162
      0.07000000	     -6.63746423	      3.16317323	    186.32766897	      0.05243721	      0.95605085	      1.19841094	     -6.57333858	      6.51018293	    -11.73366909	     -6.98494667	     12.68562902	      7.96089751	     -3.67514925	     -4.58785721	    -11.35651548	    -15.39886466	     21.00009593	     -7.58048547	    -12.73091993	      5.40984562	     -8.93181061
      0.08000000	     -6.65259338	      3.18188531	    186.28747813	      0.05273321	      0.95606433	      1.19843142	     -6.53739027	      6.51621626	    -11.69936350	     -7.04038142	     12.68217190	      7.96005607	     -3.64843730	     -4.59950490	    -11.34454991	    -15.45445447	     21.00603825	     -7.59098418	    -12.78040001	      5.39338530	     -8.96222619
      0.09000000	     -6.62948327	      3.23029197	    186.24204643	      0.05307091	      0.95598901	      1.19839041	     -6.43984443	      6.54929898	    -11.69332496	     -7.12047469	     12.70264811	      7.96380892	     -3.52851114	     -4.66053739	    -11.42847316	    -15.60354513	     21.05941027	     -7.64939520	    -12.78885380	      5.39859338	     -8.95745256
      0.10000000	     -6.59654269	      3.27344967	    186.21826490	      0.05343639	      0.95589728	      1.19836675	     -6.33840872	      6.58097458	    -11.66989753	     -7.18500129	     12.70547089	      7.96774342	     -3.39674765	     -4.71061847	    -11.43358593	    -15.74287032	     21.11363883	     -7.68699265	    -12.78906250	      5.39987585	     -8.98533183
      0.11000000	     -6.61244649	      3.29176673	    186.18893339	      0.05375545	      0.95589201	      1.19833280	     -6.30453131	      6.59264398	    -11.63933697	     -7.23702035	     12.70023728	      7.96850151	     -3.35728621	     -4.72893406	    -11.41233147	    -15.81489955	     21.11980482	     -7.69292951	    -12.84327070	      5.37501379	     -9.01095970
      0.12000000	     -6.53696462	      3.35861285	    186.15954129	      0.05411638	      0.95570684	      1.19828061	     -6.14972941	      6.64438045	    -11.61932841	     -7.31135999	     12.71149174	      7.97925106	     -3.14952085	     -4.81150670	    -11.46859093	    -16.01033659	     21.22172436	     -7.73863498	    -12.78926896	      5.39879973	     -9.01964410
      0.13000000	     -6.52642549	      3.39366010	    186.13037283	      0.05442008	      0.95563346	      1.19824507	     -6.09116177	      6.67113537	    -11.59642319	     -7.35255738	     12.73112676	      7.98504371	     -3.04736442	     -4.85757105	    -11.50119199	    -16.15034226	     21.24310672	     -7.76388254	    -12.80920829	      5.39221032	     -9.02574584
      0.14000000	     -6.48915250	      3.43473994	    186.08683350	      0.05471534	      0.95551416	      1.19820002	     -5.99926801	      6.69846615	    -11.54230275	     -7.40297916	     12.74274930	      7.99183274	     -2.91929515	     -4.90425590	    -11.53150236	    -16.28826144	     21.31134358	     -7.78929031	    -12.79753658	      5.38983949	     -9.00760296
      0.15000000	     -6.45873981	      3.47093224	    186.04552366	      0.05498319	      0.95540814	      1.19817521	     -5.92265253	      6.72094100	    -11.49402646	     -7.44323533	     12.75862460	      7.99917066	     -2.80349194	     -4.94436204	    -11.55777822	    -16.42041516	     21.35103746	     -7.81676651	    -12.79175803	      5.38552631	     -8.99122452
      0.16000000	     -6.46777544	      3.48365414	    186.00886953	      0.05519967	      0.95537825	      1.19819591	     -5.90559807	      6.72112291	    -11.46406222	     -7.46512740	     12.76082547	      8.00196024	     -2.76160933	     -4.94951896	    -11.52758991	    -16.49947603	     21.36328235	     -7.82122122	    -12.83058621	      5.36328597	     -8.97255977
      0.17000000	     -6.42700994	      3.54106044	    185.95221377	      0.05538381	      0.95525089	      1.19817853	     -5.83350209	      6.76499710	    -11.37949061	     -7.48121760	     12.79725644	      8.02555951	     -2.63132091	     -5.01451167	    -11.60310704	    -16.65184939	     21.44625607	     -7.87258605	    -12.80331930	      5.38528566	     -8.92869433
      0.18000000	     -6.40446232	      3.57886889	    185.90803568	      0.05551719	      0.95517381	      1.19823497	     -5.79318175	      6.78700787	    -11.32774532	     -7.48620432	     12.79756268	      8.05268839	     -2.54282693	     -5.04525698	    -11.60341643	    -16.76508061	     21.50159048	     -7.91894243	    -12.79543050	      5.39557773	     -8.88973144
      0.19000000	     -6.41385745	      3.59490036	    185.87062523	      0.05556817	      0.95516750	      1.19834782	     -5.80524551	      6.78666459	    -11.31628229	     -7.47237192	     12.80795429	      8.06415182	     -2.51444792	     -5.04592016	    -11.57311453	    -16.83966130	     21.51324701	     -7.93132589	    -12.81921885	      5.38791591	     -8.84772401
      0.20000000	     -6.42998553	      3.64817542	    185.82388114	      0.05554819	      0.95515993	      1.19848276	     -5.83904514	      6.82775863	    -11.25080886	     -7.43135411	     12.84138491	      8.12856833	     -2.47917608	     -5.09261875	    -11.59229262	    -16.95307727	     21.59159776	     -8.00718761	    -12.84010682	      5.43361270	     -8.80032086
      0.21000000	     -6.45730942	      3.68953244	    185.78391782	      0.05548224	      0.95518494	      1.19866476	     -5.89158823	      6.85483488	    -11.21875179	     -7.38413495	     12.84923024	      8.22015426	     -2.46325462	     -5.11912113	    -11.57110263	    -17.05671520	     21.66214071	     -8.10027400	    -12.87270328	      5.46943208	     -8.74177591
      0.22000000	     -6.49245357	      3.73158163	    185.75681846	      0.05538088	      0.95522386	      1.19888158	     -5.95721438	      6.88389277	    -11.21409885	     -7.33099118	     12.87488922	      8.32553617	     -2.44889494	     -5.14478750	    -11.52121777	    -17.17270362	     21.72498466	     -8.19411929	    -12.91133247	      5.51038352	     -8.69261929
      0.23000000	     -6.52812955	      3.78235358	    185.74486418	      0.05528530	      0.95525232	      1.19911973	     -6.01957963	      6.92449348	    -11.22838710	     -7.27959023	     12.90289824	      8.45181290	     -2.41413443	     -5.18104630	    -11.44748799	    -17.32119279	     21.80562609	     -8.30073984	    -12.95103282	      5.56457013	     -8.65032837
      0.24000000	     -6.53983558	      3.83748056	    185.75125898	      0.05521161	      0.95523255	      1.19935800	     -6.05209350	      6.97067950	    -11.28165241	     -7.22734211	     12.90226728	      8.66810290	     -2.32149071	     -5.22351526	    -11.34291702	    -17.51901512	     21.93487052	     -8.48765158	    -12.96427414	      5.61719769	     -8.60821926
      0.25000000	     -6.57098843	      3.90897843	    185.76197849	      0.05522127	      0.95522369	      1.19958495	     -6.08095832	      7.03733451	    -11.30012888	     -7.20861666	     12.97914900	      8.76788561	     -2.22776149	     -5.28608704	    -11.21071878	    -17.74376430	     21.99420917	     -8.57213708	    -13.01885800	      5.69628874	     -8.57304166
      0.26000000	     -6.54165268	      3.98959698	    185.80289156	      0.05524320	      0.95508692	      1.19981420	     -6.03688483	      7.11281363	    -11.39570880	     -7.19374230	     12.99122262	      8.99274070	     -2.01708836	     -5.36235367	    -11.05168025	    -18.05362435	     22.18766542	     -8.78861097	    -12.99688994	      5.77374593	     -8.55087657
      0.27000000	     -6.53732983	      4.07620439	    185.83809954	      0.05530468	      0.95497850	      1.20002874	     -6.00608021	      7.19721496	    -11.45350982	     -7.19966126	     13.06145054	      9.16203091	     -1.82928474	     -5.44406066	    -10.87825247	    -18.36640815	     22.32524069	     -8.96612834	    -13.01853796	      5.86284744	     -8.51949572
      0.28000000	     -6.51026329	      4.17219707	    185.87078955	      0.05535645	      0.95482713	      1.20023331	     -5.93357903	      7.28765162	    -11.50650850	     -7.23856801	     13.12089656	      9.36285892	     -1.61164927	     -5.52924648	    -10.67462022	    -18.68791461	     22.45889020	     -9.21110087	    -13.01138479	      5.95818302	     -8.46625069
      0.29000000	     -6.50883679	      4.27028702	    185.90847976	      0.05538682	      0.95469292	      1.20043397	     -5.89470806	      7.38705234	    -11.55613577	     -7.26634147	     13.18344309	      9.50416216	     -1.41683345	     -5.62242199	    -10.48401607	    -19.02143579	     22.63175651	     -9.40675968	    -13.03771795	      6.05592211	     -8.41733473
